<svg width="34" height="34" viewBox="0 0 34 34" fill="none" xmlns="http://www.w3.org/2000/svg">
<path d="M0.846527 0.93811H32.6884V33.5384H0.846527V0.93811Z" fill="#AD00FF"/>
<path d="M30.0825 25.7631C29.8492 24.2759 28.902 23.0267 26.0961 21.8618C25.1214 21.4032 24.0348 21.0749 23.711 20.3186C23.596 19.8785 23.5807 19.6306 23.6535 19.3642C23.8623 18.4996 24.8704 18.2301 25.6693 18.478C26.1839 18.6545 26.671 19.0605 26.9648 19.7082C28.3388 18.7973 28.336 18.8032 29.2955 18.1772C28.9442 17.6196 28.7567 17.3624 28.5268 17.1238C27.7004 16.1788 26.5743 15.692 24.7734 15.7293L23.8354 15.8535C22.9365 16.0861 22.0798 16.5691 21.5774 17.2168C20.0701 18.9678 20.4999 22.0324 22.3341 23.2936C24.1411 24.6821 26.7956 24.998 27.1347 26.2965C27.4646 27.8861 25.9936 28.4006 24.5315 28.2178C23.4541 27.9884 22.8548 27.4277 22.2069 26.4082C21.0145 27.1147 21.0145 27.1147 19.7885 27.8366C20.0792 28.4874 20.3847 28.7819 20.8721 29.3457C23.1786 31.741 28.9506 31.6233 29.9858 27.9978C30.0278 27.8733 30.3065 27.0431 30.0825 25.7631ZM18.1568 15.9212H15.1785L15.1662 23.8045C15.1662 25.4811 15.2509 27.0181 14.9846 27.4892C14.5489 28.4157 13.4198 28.3009 12.9052 28.1212C12.3815 27.8577 12.1152 27.4829 11.8067 26.9532C11.722 26.8012 11.6584 26.6834 11.637 26.6743L9.21548 28.1926C9.61814 29.0387 10.2113 29.773 10.9711 30.2501C12.106 30.9475 13.6314 31.1613 15.2268 30.7863C16.2651 30.4767 17.1609 29.8353 17.63 28.859C18.3081 27.579 18.1626 26.0298 18.1565 24.3163C18.1718 21.5207 18.1568 18.7256 18.1568 15.9212Z" fill="#FFFEFF"/>
</svg>
