<svg width="30" height="30" viewBox="0 0 30 30" fill="none" xmlns="http://www.w3.org/2000/svg">
<path d="M4.40954 26.7476L2.05313 0.316895H27.9469L25.5881 26.7436L14.9843 29.6834L4.40954 26.7476Z" fill="#AD00FF"/>
<path d="M15.0002 27.4364L23.5688 25.0608L25.5846 2.47778H15.0002V27.4364Z" fill="#AD00FF"/>
<path d="M15.0002 12.0536H19.2898L19.586 8.73419H15.0002V5.49255H23.1288L23.051 6.36232L22.2541 15.2953H15.0002V12.0536Z" fill="white"/>
<path d="M15.0194 20.4724L15.0051 20.4767L11.3951 19.5019L11.1642 16.9165H7.91061L8.3646 22.0064L15.0047 23.8493L15.0194 23.8451V20.4724Z" fill="#EBEBEB"/>
<path d="M19.0141 15.1582L18.6237 19.4993L15.0082 20.4752V23.8479L21.6537 22.0062L21.7024 21.4584L22.2663 15.1582H19.0141Z" fill="white"/>
<path d="M15.0112 5.49255V8.73419H7.18124L7.11632 8.00576L6.96866 6.36232L6.89108 5.49255H15.0112ZM15.0002 12.0541V15.2958H11.4356L11.3707 14.5673L11.2228 12.9239L11.1455 12.0541H15.0002Z" fill="#EBEBEB"/>
</svg>
