<svg width="31" height="31" viewBox="0 0 31 31" fill="none" xmlns="http://www.w3.org/2000/svg">
<path fill-rule="evenodd" clip-rule="evenodd" d="M1.2392 13.733C1.2392 13.8977 1.28771 14.0065 1.3149 14.1122C1.49209 14.7996 1.87295 15.3895 2.32482 15.9277C2.96842 16.6945 3.75662 17.3119 4.56404 17.8924C5.26435 18.3959 5.97896 18.8881 6.68209 19.3877C6.80279 19.4735 6.91693 19.5722 7.04795 19.6774C6.93521 19.7384 6.84146 19.792 6.74396 19.8415C5.81607 20.3121 4.92334 20.8397 4.10045 21.4788C3.60451 21.8641 3.12498 22.2736 2.78631 22.8087C2.24138 23.6693 2.04849 24.5862 2.45467 25.5652C2.57326 25.8511 2.7542 26.0981 3.00943 26.2807C3.09217 26.3398 3.18498 26.3984 3.28177 26.4213C3.52974 26.4797 3.7824 26.5179 4.03342 26.5641L4.74427 26.5636C5.53037 26.4935 6.24592 26.2242 6.89256 25.778C7.90318 25.0805 8.58404 24.1453 8.87677 22.9451C9.08959 22.0727 9.09826 21.1995 8.84748 20.3311C8.82347 20.2507 8.79579 20.1713 8.76451 20.0934C8.73404 20.0154 8.69818 19.9395 8.65599 19.8422L10.2676 18.9155L10.2917 18.9361C10.2624 19.032 10.2312 19.1276 10.2047 19.2244C10.0133 19.9238 9.88599 20.6353 9.9317 21.3612C9.98045 22.1346 10.1963 22.8586 10.6491 23.5048C11.0152 24.0274 11.8876 24.0469 12.2766 23.5224C12.4147 23.336 12.5485 23.1413 12.649 22.9334C12.9118 22.3908 13.1551 21.8386 13.4061 21.2902L13.4499 21.1898C13.4319 21.4495 13.4108 21.6776 13.4011 21.9059C13.3861 22.2623 13.407 22.6167 13.5289 22.9559C13.6332 23.246 13.8106 23.4628 14.1429 23.501C14.3703 23.527 14.5515 23.423 14.7186 23.291C14.9775 23.0864 15.192 22.8313 15.3493 22.5413C15.7948 21.7231 16.2523 20.9098 16.6561 20.0709C17.093 19.1637 17.4751 18.2299 17.8808 17.3072L17.9478 17.1436C18.0436 17.5202 18.1104 17.8891 18.2335 18.2384C18.3765 18.6436 18.5534 19.0392 18.7461 19.4238C18.8372 19.6055 18.8267 19.7234 18.7004 19.8757C18.1716 20.5132 17.652 21.1584 17.1319 21.803C17.0169 21.9452 16.9022 22.0901 16.8064 22.2455C16.7482 22.3436 16.71 22.4522 16.6939 22.5652C16.6778 22.6691 16.7025 22.7753 16.7629 22.8614C16.8234 22.9475 16.9148 23.0069 17.018 23.0271C17.2264 23.072 17.4401 23.0872 17.6527 23.0723C18.3786 23.0189 19.0376 22.7641 19.6203 22.3324C20.3752 21.7732 20.6176 21.0101 20.4347 20.1056C20.3853 19.8602 20.2979 19.6216 20.2128 19.3852C20.1746 19.2785 20.172 19.2038 20.2416 19.1044C20.8451 18.2426 21.3608 17.3283 21.8403 16.3929C21.8593 16.3561 21.8787 16.3193 21.912 16.2799C22.0674 17.0885 22.3013 17.8678 22.7204 18.5749C22.5066 18.7809 22.295 18.9677 22.1035 19.1735C21.6819 19.6268 21.3162 20.119 21.1254 20.7192C21.0434 20.978 20.9804 21.2409 21.0169 21.5173C21.0736 21.9464 21.4252 22.2253 21.8473 22.1276C22.7506 21.9185 23.5304 21.4929 24.1001 20.7389C24.4836 20.2313 24.5185 19.665 24.3579 19.0718C24.3139 18.9106 24.2616 18.7519 24.2054 18.567C24.4283 18.4978 24.6455 18.4148 24.8703 18.3635C26.0372 18.0973 27.1915 18.1437 28.3161 18.5651C28.9726 18.8112 29.5029 19.223 29.8175 19.8708C30.2016 20.6627 29.9893 21.4141 29.2428 21.9148C29.1732 21.9614 29.0935 21.9982 29.0358 22.0566C29.0174 22.078 29.0036 22.103 28.9953 22.13C28.987 22.1571 28.9845 22.1855 28.9878 22.2136C28.9927 22.2424 29.0689 22.2785 29.1127 22.2781C29.3581 22.2762 29.5571 22.1475 29.7481 22.0153C30.2267 21.6841 30.5759 21.2386 30.6511 20.652L30.6659 20.6079L30.6479 20.2259C30.6406 20.2038 30.6533 20.182 30.6516 20.1654C30.5499 19.3111 30.0936 18.6485 29.4298 18.1291C28.6611 17.528 27.7533 17.2805 26.7933 17.2413C26.0147 17.2078 25.2371 17.3275 24.5047 17.5936C24.2944 17.6698 24.0861 17.76 23.8747 17.8451C23.8463 17.7938 23.8158 17.7445 23.7908 17.6937C23.5737 17.2493 23.3108 16.8246 23.2526 16.3151C23.2114 15.9532 23.1608 15.5918 23.2468 15.2339C23.3295 14.8896 23.4373 14.5512 23.5388 14.2116C23.5911 14.0367 23.5543 13.9388 23.3874 13.86C23.3293 13.831 23.2672 13.8106 23.2032 13.7995C22.793 13.74 22.3885 13.774 21.9912 13.8895C21.8506 13.9306 21.7484 14.0093 21.7172 14.1649C21.6994 14.2542 21.6631 14.3398 21.6378 14.4279C21.534 14.7942 21.4604 15.1676 21.2926 15.5166C20.8721 16.392 20.3921 17.2343 19.9008 18.0706C19.8476 18.1608 19.7916 18.2494 19.7246 18.3588C19.5521 17.9979 19.3681 17.674 19.3123 17.2943C19.2493 16.8649 19.1996 16.4363 19.3065 16.0102C19.3859 15.6923 19.4897 15.3804 19.5854 15.0668C19.6306 14.9177 19.6097 14.8395 19.4747 14.7609C19.4065 14.7213 19.3294 14.6862 19.2526 14.6747C18.832 14.6106 18.4023 14.6458 17.9977 14.7773C17.8704 14.8186 17.8036 14.9009 17.7647 15.0321C17.6504 15.4193 17.5529 15.8159 17.3923 16.1841C16.7422 17.6747 16.0733 19.1576 15.4051 20.6402C15.2656 20.9498 15.1022 21.2487 14.945 21.5501C14.9051 21.6265 14.847 21.6938 14.7973 21.7655C14.7575 21.7184 14.742 21.686 14.7422 21.6537C14.7434 21.4631 14.7207 21.267 14.757 21.0827C14.8686 20.5256 14.9919 19.9709 15.1269 19.4189C15.237 18.9628 15.3652 18.5109 15.4873 18.0579C15.5283 17.9063 15.529 17.7645 15.4201 17.637C15.237 17.4234 14.8545 17.3766 14.6276 17.5411L14.5273 17.5978L14.5468 17.4361C14.5946 17.0895 14.6042 16.744 14.509 16.4025C14.3904 15.9769 14.0867 15.732 13.6451 15.7456C13.4394 15.7519 13.2233 15.787 13.0327 15.862C12.2314 16.1761 11.6152 16.7323 11.0907 17.4014C11.0421 17.4635 10.9818 17.5156 10.9133 17.5547C10.2352 17.9306 9.55506 18.3019 8.87513 18.6745L8.11834 19.0891C7.91537 18.8956 7.73092 18.6947 7.52162 18.5243C6.88248 18.0031 6.23303 17.4947 5.58943 16.9793C5.01896 16.5225 4.46631 16.0467 4.04349 15.4418C3.72896 14.9918 3.52623 14.4994 3.50677 13.943C3.48217 13.234 3.68326 12.5862 4.0442 11.9831C4.50592 11.2116 5.13568 10.5923 5.82802 10.0315C6.56045 9.43852 7.35263 8.93508 8.17365 8.47547C9.32232 7.83258 10.5038 7.26352 11.7706 6.88782C13.0695 6.50251 14.3874 6.28196 15.7468 6.43571C16.2811 6.49618 16.8001 6.61852 17.2765 6.87985C17.6415 7.07977 17.9408 7.34157 18.08 7.75079C18.2173 8.15344 18.2131 8.56149 18.1179 8.97047C17.9246 9.79875 17.4711 10.4815 16.9004 11.0916C15.9643 12.0916 14.8224 12.7725 13.5369 13.2223C12.7977 13.4812 12.0287 13.6453 11.2482 13.7105C10.6086 13.7641 9.98232 13.7074 9.3767 13.485C8.97568 13.3376 8.62646 13.1121 8.34568 12.7849C8.29553 12.7263 8.23131 12.6628 8.13779 12.7177C8.04615 12.7716 8.02998 12.8588 8.06068 12.9471C8.11201 13.0938 8.15935 13.2466 8.23927 13.3779C8.44013 13.7072 8.7331 13.946 9.0556 14.1509C9.67506 14.5448 10.3674 14.6773 11.0853 14.708C12.1747 14.7551 13.2376 14.5924 14.2854 14.3002C15.7815 13.883 17.0822 13.1461 18.1254 11.9836C18.994 11.0156 19.6144 9.92321 19.7473 8.60415C19.8122 7.96032 19.7431 7.32961 19.4417 6.74227C19.1147 6.10594 18.5949 5.63274 17.9733 5.30672C17.0682 4.83211 16.0913 4.55579 15.083 4.55579H14.0729C12.8518 4.55579 11.6712 4.90571 10.5237 5.32313C9.65513 5.6393 8.80342 6.01243 7.97654 6.4254C6.17584 7.32516 4.49888 8.41008 3.12146 9.90188C2.43521 10.6451 1.8542 11.4652 1.51998 12.4308C1.4191 12.7191 1.33221 13.0121 1.25959 13.3088M7.78435 21.7493C7.70631 22.7944 7.23263 23.6416 6.45849 24.3279C6.02303 24.7137 5.52357 24.9884 4.94185 25.0849C4.73092 25.1199 4.51506 25.1283 4.31045 25.0409C4.01865 24.9162 3.95326 24.6572 3.94763 24.3813C3.93896 23.9416 4.09295 23.5441 4.30412 23.1659C4.57974 22.6727 4.98381 22.2968 5.41529 21.9457C6.09498 21.3923 6.83232 20.9241 7.58748 20.482L7.64443 20.4586C7.76115 20.8898 7.8167 21.3157 7.78435 21.7493ZM13.6808 17.2073C13.6257 17.5411 13.5568 17.8751 13.4593 18.1985C13.1222 19.3181 12.6894 20.4031 12.2213 21.4734C12.1348 21.6715 12.009 21.8522 11.8995 22.0399C11.8809 22.0688 11.8586 22.0951 11.8332 22.1182C11.6977 22.252 11.5693 22.245 11.5008 22.0699C11.4211 21.8665 11.3722 21.6488 11.33 21.4334C11.3016 21.2888 11.3084 21.1369 11.2995 20.9888C11.3087 19.9355 11.63 18.9783 12.1751 18.0872C12.3999 17.7197 12.6446 17.3695 13.0184 17.137C13.1347 17.0647 13.2605 17.009 13.3922 16.9716C13.5915 16.9156 13.7138 17.0077 13.6808 17.2073ZM17.7036 22.3327L19.1494 20.6445C19.2097 21.2714 18.144 22.523 17.7036 22.3327ZM22.3215 21.1966C22.2193 21.2552 22.1079 21.2974 22.0032 21.3516C21.9073 21.4013 21.8757 21.3511 21.8729 21.2686C21.8715 21.2115 21.8788 21.1545 21.8947 21.0996C22.0899 20.411 22.4492 19.8232 22.9838 19.3451L23.0213 19.3259C23.2756 20.0372 22.9817 20.8184 22.3215 21.1966Z" fill="#AD00FF"/>
</svg>
