<svg width="50" height="40" viewBox="0 0 50 40" fill="none" xmlns="http://www.w3.org/2000/svg">
<path d="M25.0028 10C21.0012 10 18.5069 12.2361 17.5145 16.6667C19.0162 14.4369 20.7755 13.6157 22.7604 14.1803C23.8947 14.4947 24.7193 15.409 25.6221 16.4453C27.0978 18.1104 28.7992 20.0321 32.5173 20.0321C36.5133 20.0321 39.0075 17.796 40 13.3654C38.4982 15.5952 36.739 16.4164 34.7541 15.8517C33.6198 15.5373 32.8009 14.623 31.8923 13.5867C30.4167 11.9216 28.7153 10 25.0028 10ZM17.4884 19.9679C13.4867 19.9679 10.9925 22.1977 10 26.6333C11.5018 24.3985 13.261 23.5836 15.2459 24.1483C16.3802 24.4627 17.2048 25.377 18.1077 26.4133C19.5833 28.0784 21.2847 30 25.0028 30C28.9988 30 31.4931 27.7639 32.4855 23.3333C30.9838 25.5631 29.2245 26.3843 27.2396 25.8134C26.1053 25.499 25.2864 24.591 24.3779 23.5547C22.9283 21.8833 21.2269 19.9679 17.4884 19.9679Z" fill="url(#paint0_linear_107_4)"/>
<defs>
<linearGradient id="paint0_linear_107_4" x1="9.19731" y1="16.3404" x2="36.3832" y2="30.4775" gradientUnits="userSpaceOnUse">
<stop offset="0.229167" stop-color="#AD00FF"/>
<stop offset="1" stop-color="#0ED7B5"/>
</linearGradient>
</defs>
</svg>
