<svg width="30" height="30" viewBox="0 0 30 30" fill="none" xmlns="http://www.w3.org/2000/svg">
<path fill-rule="evenodd" clip-rule="evenodd" d="M22.9724 7.03491C20.8557 4.91821 18.0432 3.75 15.0476 3.75C8.87329 3.75 3.84522 8.77441 3.84522 14.9487C3.84155 16.9226 4.35791 18.8489 5.33936 20.5481L3.75 26.3525L9.68994 24.7925C11.3232 25.686 13.1689 26.1548 15.0439 26.1584H15.0476C21.2219 26.1584 26.2463 21.134 26.25 14.9561C26.25 11.9641 25.0854 9.15161 22.9724 7.03491ZM15.0476 24.2651H15.0439C13.374 24.2651 11.7334 23.8147 10.3052 22.9688L9.9646 22.7673L6.43799 23.6902L7.37915 20.2551L7.15942 19.9036C6.22559 18.4204 5.73486 16.7065 5.73486 14.9487C5.73486 9.81812 9.91333 5.64331 15.0513 5.64331C17.5378 5.64331 19.8743 6.61377 21.6321 8.37158C23.3899 10.1331 24.3567 12.4695 24.3567 14.9561C24.3567 20.0903 20.1782 24.2651 15.0476 24.2651ZM20.1526 17.2925C19.8743 17.1533 18.4973 16.4758 18.241 16.3843C17.9846 16.2891 17.7979 16.2451 17.6111 16.5234C17.4243 16.8054 16.8896 17.4353 16.7249 17.6221C16.5637 17.8052 16.3989 17.8308 16.1206 17.6917C15.8386 17.5525 14.9377 17.2559 13.8684 16.3C13.0371 15.5603 12.4731 14.6411 12.312 14.3628C12.1472 14.0808 12.2937 13.9307 12.4329 13.7915C12.561 13.667 12.7148 13.4656 12.854 13.3008C12.9932 13.1396 13.0408 13.0225 13.136 12.8357C13.2275 12.6489 13.1799 12.4841 13.1104 12.345C13.0408 12.2058 12.4805 10.8252 12.2461 10.2649C12.019 9.71924 11.7883 9.79614 11.6162 9.78516C11.4551 9.77783 11.2683 9.77783 11.0815 9.77783C10.8948 9.77783 10.5908 9.84741 10.3345 10.1294C10.0781 10.4077 9.35669 11.0852 9.35669 12.4622C9.35669 13.8391 10.3601 15.1721 10.4993 15.3589C10.6384 15.542 12.4731 18.3691 15.282 19.5813C15.9485 19.8706 16.4685 20.0427 16.875 20.1709C17.5452 20.3833 18.1567 20.354 18.6401 20.2844C19.1785 20.2039 20.2954 19.6069 20.5298 18.9514C20.7605 18.2996 20.7605 17.7393 20.6909 17.6221C20.6213 17.5049 20.4346 17.4353 20.1526 17.2925Z" fill="#FBF1FF"/>
</svg>
