<svg width="30" height="30" viewBox="0 0 30 30" fill="none" xmlns="http://www.w3.org/2000/svg">
<path d="M5.625 6.5918C5.33569 6.5918 5.0647 6.64673 4.80469 6.72729L7.53662 8.4668H22.4634L25.1953 6.72729C24.9353 6.64673 24.6643 6.5918 24.375 6.5918H5.625ZM3.8562 7.23633C3.22266 7.75269 2.8125 8.52905 2.8125 9.4043V21.5918C2.8125 23.1409 4.07593 24.4043 5.625 24.4043H24.375C25.9241 24.4043 27.1875 23.1409 27.1875 21.5918V9.4043C27.1875 8.52905 26.7773 7.75269 26.1438 7.23633L15 14.3262L3.8562 7.23633ZM5.625 11.6675L15 17.6367L24.375 11.6675V22.5293H5.625V11.6675Z" fill="white"/>
</svg>
