<svg width="30" height="30" viewBox="0 0 30 30" fill="none" xmlns="http://www.w3.org/2000/svg">
<path d="M15 27.5C13.2639 27.5 11.6354 27.1719 10.1146 26.5156C8.59376 25.8594 7.2691 24.967 6.14063 23.8385C5.01215 22.7101 4.12326 21.382 3.47397 19.8542C2.82466 18.3264 2.5 16.6944 2.5 14.9583C2.5 13.2153 2.82466 11.5885 3.47397 10.0781C4.12326 8.56771 5.01215 7.24826 6.14063 6.11978C7.2691 4.99132 8.59376 4.10591 10.1146 3.46353C11.6354 2.82118 13.2639 2.5 15 2.5C16.7431 2.5 18.3733 2.82118 19.8906 3.46353C21.408 4.10591 22.7309 4.99132 23.8594 6.11978C24.9879 7.24826 25.8767 8.56771 26.526 10.0781C27.1753 11.5885 27.5 13.2153 27.5 14.9583C27.5 16.6944 27.1753 18.3264 26.526 19.8542C25.8767 21.382 24.9879 22.7101 23.8594 23.8385C22.7309 24.967 21.408 25.8594 19.8906 26.5156C18.3733 27.1719 16.7431 27.5 15 27.5ZM15 25.4375C15.6667 24.6875 16.2292 23.8542 16.6875 22.9375C17.1458 22.0208 17.5208 20.9653 17.8125 19.7708H12.2083C12.4861 20.9097 12.8542 21.9479 13.3125 22.8854C13.7708 23.8229 14.3333 24.6736 15 25.4375ZM12.1458 25.0208C11.6736 24.2639 11.2656 23.4566 10.9219 22.599C10.5781 21.7413 10.2917 20.7986 10.0625 19.7708H5.70831C6.43748 21.1042 7.30033 22.1806 8.29688 23C9.2934 23.8195 10.5764 24.4931 12.1458 25.0208ZM17.875 25C19.2639 24.5556 20.5087 23.8854 21.6094 22.9896C22.7101 22.0938 23.6042 21.0208 24.2917 19.7708H19.9583C19.7153 20.7847 19.4253 21.7205 19.0885 22.5781C18.7517 23.4358 18.3472 24.2431 17.875 25ZM4.9375 17.6875H9.66666C9.60416 17.1736 9.56423 16.6996 9.54688 16.2656C9.52952 15.8316 9.52084 15.3958 9.52084 14.9583C9.52084 14.4653 9.53299 14.0156 9.55728 13.6094C9.58159 13.2031 9.625 12.7639 9.6875 12.2917H4.9375C4.80554 12.7639 4.71352 13.1997 4.66144 13.599C4.60935 13.9983 4.58331 14.4514 4.58331 14.9583C4.58331 15.4653 4.60935 15.9288 4.66144 16.349C4.71352 16.7691 4.80554 17.2153 4.9375 17.6875ZM11.7917 17.6875H18.2292C18.3056 17.1181 18.3559 16.6302 18.3802 16.224C18.4045 15.8177 18.4167 15.3958 18.4167 14.9583C18.4167 14.5347 18.4045 14.1267 18.3802 13.7344C18.3559 13.342 18.3056 12.8611 18.2292 12.2917H11.7917C11.7153 12.8611 11.6649 13.342 11.6406 13.7344C11.6163 14.1267 11.6042 14.5347 11.6042 14.9583C11.6042 15.3958 11.6163 15.8177 11.6406 16.224C11.6649 16.6302 11.7153 17.1181 11.7917 17.6875ZM20.3125 17.6875H25.0625C25.1945 17.2153 25.2865 16.7691 25.3386 16.349C25.3906 15.9288 25.4167 15.4653 25.4167 14.9583C25.4167 14.4514 25.3906 13.9983 25.3386 13.599C25.2865 13.1997 25.1945 12.7639 25.0625 12.2917H20.3333C20.3958 12.9167 20.4392 13.4253 20.4635 13.8177C20.4878 14.2101 20.5 14.5903 20.5 14.9583C20.5 15.4097 20.4844 15.8385 20.4531 16.2448C20.4219 16.651 20.375 17.1319 20.3125 17.6875ZM19.9375 10.2083H24.2917C23.632 8.90278 22.7518 7.80208 21.6511 6.90625C20.5504 6.0104 19.2847 5.36803 17.8542 4.97916C18.3264 5.72222 18.7309 6.51563 19.0677 7.35938C19.4045 8.20313 19.6944 9.15278 19.9375 10.2083ZM12.2083 10.2083H17.8333C17.5972 9.16668 17.2327 8.16668 16.7396 7.20834C16.2465 6.24999 15.6667 5.38193 15 4.60416C14.375 5.22916 13.8438 5.98263 13.4063 6.86456C12.9688 7.74652 12.5694 8.86112 12.2083 10.2083ZM5.70831 10.2083H10.0833C10.2986 9.19445 10.5712 8.26909 10.901 7.43228C11.2309 6.59547 11.6389 5.7847 12.125 4.99997C10.6944 5.38887 9.43923 6.02429 8.35938 6.90625C7.2795 7.78819 6.39581 8.88889 5.70831 10.2083Z" fill="black"/>
</svg>
